Coordinates
version=1
nRows=29
nColumns=24
inDegrees=yes

Units are S.I. units (second, meters, Newtons, ...)
Angles are in degrees.

endheader
time	pelvis_tilt	pelvis_list	pelvis_rotation	pelvis_tx	pelvis_ty	pelvis_tz	hip_flexion_r	hip_adduction_r	hip_rotation_r	knee_angle_r	ankle_angle_r	subtalar_angle_r	mtp_angle_r	hip_flexion_l	hip_adduction_l	hip_rotation_l	knee_angle_l	ankle_angle_l	subtalar_angle_l	mtp_angle_l	lumbar_extension	lumbar_bending	lumbar_rotation
      1.65000000	     -9.22949515	      4.29843197	    355.20635839	     -0.78012852	      1.36468012	     -1.04214591	      3.99703441	     -0.82833249	      5.58773158	    -19.35139735	     12.44881623	     -3.93214326	      6.36050156	     26.94392397	      4.06282016	     -6.29451271	      4.32774478	     -8.42749199	      5.87960922	     32.61887905	     -6.06027050	     -0.35959932	     17.11329752
      1.65500000	     -9.16318040	      4.40874749	    355.20319513	     -0.77440002	      1.36395687	     -1.04235936	      3.67487924	     -1.00185584	      5.49267416	    -19.55605097	     12.60449350	     -3.77817258	      6.48244786	     27.04950966	      4.21140858	     -6.06783370	      3.50748122	     -8.55894377	      4.90303692	     32.42238322	     -6.07782439	     -0.52647302	     17.05956507
      1.66000000	     -9.14959870	      4.50773060	    355.21694547	     -0.76865893	      1.36321114	     -1.04259537	      3.42140279	     -1.15791800	      5.38994941	    -19.79001908	     12.70419354	     -3.64771104	      6.62649668	     27.21797896	      4.35249946	     -5.78342920	      2.65762013	     -8.76900021	      3.84554745	     32.24783189	     -6.04281324	     -0.67209865	     16.95772707
      1.66500000	     -9.13072560	      4.61184097	    355.22878639	     -0.76288142	      1.36250456	     -1.04284395	      3.17026645	     -1.32131632	      5.28537263	    -20.03726750	     12.79244367	     -3.50802533	      6.80347512	     27.36808467	      4.50588244	     -5.51973357	      1.82148792	     -9.06808260	      2.77991022	     32.06553261	     -6.00899601	     -0.81939403	     16.85776540
      1.67000000	     -9.10661633	      4.71841933	    355.25612266	     -0.75708223	      1.36184498	     -1.04310959	      2.92386885	     -1.48899712	      5.16748676	    -20.31089531	     12.83963602	     -3.36286001	      6.98870917	     27.50030065	      4.67379813	     -5.23205967	      1.00608040	     -9.43461174	      1.72100412	     31.90447322	     -5.98326641	     -0.97335555	     16.73425616
      1.67500000	     -9.11057807	      4.81727048	    355.30866604	     -0.75128261	      1.36119640	     -1.04340805	      2.72701241	     -1.64573610	      5.03402731	    -20.62702057	     12.83703136	     -3.23322689	      7.21982662	     27.65745693	      4.84493950	     -4.88766553	      0.20513887	     -9.84968173	      0.66381683	     31.80581487	     -5.92811969	     -1.12373208	     16.59704852
      1.68000000	     -9.09116280	      4.93760901	    355.34393835	     -0.74545195	      1.36064530	     -1.04368991	      2.53003718	     -1.82817923	      4.91017442	    -20.98439638	     12.79307907	     -3.07257642	      7.47316660	     27.76193212	      5.03866736	     -4.62722327	     -0.53725344	    -10.34737233	     -0.31013251	     31.68363107	     -5.89859388	     -1.29119716	     16.44596712
      1.68500000	     -9.10907950	      5.04423613	    355.41253485	     -0.73962315	      1.36011225	     -1.04403862	      2.39593081	     -1.99568748	      4.75847286	    -21.38632224	     12.71558544	     -2.92740441	      7.78105294	     27.90627957	      5.23371504	     -4.30735731	     -1.27635807	    -10.85574046	     -1.27937788	     31.61797091	     -5.83114706	     -1.44109852	     16.28613324
      1.69000000	     -9.12117270	      5.15329887	    355.49646852	     -0.73380080	      1.35964326	     -1.04439550	      2.28753692	     -2.16401986	      4.60810151	    -21.85053792	     12.56806503	     -2.81288263	      8.18023119	     28.03215251	      5.43927832	     -3.95614046	     -1.98895333	    -11.36081068	     -2.18274067	     31.63211394	     -5.77273609	     -1.60645859	     16.12387905
      1.69500000	     -9.12818548	      5.27204166	    355.56513669	     -0.72798101	      1.35926722	     -1.04476106	      2.21595287	     -2.34675777	      4.46449686	    -22.38215704	     12.36816134	     -2.63548707	      8.59368061	     28.13747721	      5.65255109	     -3.67449633	     -2.67364897	    -11.88243590	     -3.00749349	     31.59990435	     -5.72931752	     -1.76450722	     15.94269476
      1.70000000	     -9.17541206	      5.37508447	    355.67885676	     -0.72215693	      1.35891268	     -1.04518896	      2.21993152	     -2.50863524	      4.30186494	    -22.97640456	     12.05074539	     -2.57046243	      9.18212543	     28.28810224	      5.86717145	     -3.30149516	     -3.36902014	    -12.36914711	     -3.78867011	     31.66067592	     -5.63856909	     -1.91892471	     15.77508263
      1.70500000	     -9.18039308	      5.49403814	    355.77447213	     -0.71633752	      1.35868488	     -1.04561800	      2.22834953	     -2.69720504	      4.13879178	    -23.65002124	     11.68650086	     -2.43128660	      9.80188155	     28.38113290	      6.09780847	     -2.97105852	     -4.05176239	    -12.81373600	     -4.51349885	     31.62187000	     -5.60030202	     -2.08073361	     15.59101041
      1.71000000	     -9.16847771	      5.61214507	    355.85935077	     -0.71055026	      1.35855591	     -1.04607158	      2.27389098	     -2.89094608	      3.98969866	    -24.41062015	     11.28368151	     -2.22144334	     10.44546452	     28.45507282	      6.32783422	     -2.64497775	     -4.74498168	    -13.20826622	     -5.20863939	     31.50759396	     -5.60188173	     -2.22691240	     15.38848244
      1.71500000	     -9.20061995	      5.71712733	    355.98235478	     -0.70473319	      1.35844780	     -1.04656282	      2.40527835	     -3.06436570	      3.83701808	    -25.23518398	     10.67308687	     -2.22056724	     11.40603312	     28.58799040	      6.55880290	     -2.26782662	     -5.47883397	    -13.48780482	     -5.83965698	     31.39674113	     -5.53732177	     -2.37978408	     15.22290543
      1.72000000	     -9.21128502	      5.82794462	    356.09789310	     -0.69894202	      1.35842950	     -1.04710005	      2.57748639	     -3.25826105	      3.66793782	    -26.16107967	     10.04956009	     -2.09075368	     12.32217053	     28.70007141	      6.80131897	     -1.88222174	     -6.23072378	    -13.71321550	     -6.46420249	     31.13486992	     -5.51245621	     -2.51780281	     15.03105538
      1.72500000	     -9.20232886	      5.93734592	    356.21560522	     -0.69314599	      1.35849901	     -1.04767362	      2.78000470	     -3.46108490	      3.49178189	    -27.16601349	      9.33174702	     -1.92476935	     13.28781035	     28.79488468	      7.05209429	     -1.48088865	     -7.00751086	    -13.85658199	     -7.07899903	     30.76796282	     -5.51057197	     -2.64764852	     14.84812619
      1.73000000	     -9.18551555	      6.05906161	    356.33278418	     -0.68736622	      1.35860920	     -1.04825142	      3.03624962	     -3.68195980	      3.32316175	    -28.26149090	      8.53819779	     -1.82009160	     14.43517792	     28.89302922	      7.31974018	     -1.07558466	     -7.82176934	    -13.87875811	     -7.64328245	     30.30715505	     -5.51851041	     -2.79654952	     14.67103861
      1.73500000	     -9.17513777	      6.18844946	    356.45859270	     -0.68152595	      1.35878154	     -1.04888507	      3.34784642	     -3.92859161	      3.12572240	    -29.42613750	      7.65330310	     -1.58744640	     15.53555611	     28.99006032	      7.60840845	     -0.64618715	     -8.63817323	    -13.86341857	     -8.22231048	     29.75436388	     -5.50414952	     -2.94207528	     14.48615932
      1.74000000	     -9.12706994	      6.30126275	    356.56621249	     -0.67578392	      1.35900355	     -1.04952193	      3.68694223	     -4.15966929	      2.96504601	    -30.67444558	      6.66042640	     -1.48052030	     16.87992544	     29.06433482	      7.88246873	     -0.21719154	     -9.50136224	    -13.67661135	     -8.72864654	     29.08608451	     -5.55599124	     -3.06696179	     14.33731232
      1.74500000	     -9.08713988	      6.43490528	    356.69737544	     -0.66995163	      1.35926171	     -1.05022488	      4.07437465	     -4.43625914	      2.75368141	    -31.97864948	      5.59347333	     -1.22330000	     18.09310142	     29.12626377	      8.19964866	      0.24705020	    -10.33753634	    -13.51025928	     -9.26659382	     28.38310123	     -5.56901246	     -3.21271070	     14.18989173
      1.75000000	     -9.00232595	      6.55007276	    356.78567779	     -0.66422815	      1.35957828	     -1.05086628	      4.47906083	     -4.68468155	      2.62900176	    -33.33627117	      4.38057931	     -1.14915593	     19.58936370	     29.14632545	      8.48383055	      0.64623190	    -11.19756200	    -13.15222607	     -9.64482499	     27.55646285	     -5.65412922	     -3.33487011	     14.07061711
      1.75500000	     -8.92406676	      6.67487211	    356.88827329	     -0.65848066	      1.35989929	     -1.05155926	      4.93431198	     -4.95966797	      2.48036840	    -34.74059119	      3.11133061	     -0.98520601	     20.96616363	     29.15417307	      8.79370559	      1.06688446	    -12.02748627	    -12.80013693	    -10.03748430	     26.72870310	     -5.71739991	     -3.46322405	     13.95873662
      1.76000000	     -8.86754017	      6.80841732	    356.98894411	     -0.65272892	      1.36020249	     -1.05224602	      5.45880905	     -5.24764932	      2.34935181	    -36.18650610	      1.79733390	     -0.81443027	     22.30376674	     29.16380969	      9.11336339	      1.45787623	    -12.82330485	    -12.41359785	    -10.38944991	     25.86152475	     -5.74874648	     -3.60053989	     13.84786858
      1.76500000	     -8.80318208	      6.96474071	    357.09742275	     -0.64698327	      1.36047650	     -1.05295089	      6.01556425	     -5.57165355	      2.21300682	    -37.67204415	      0.52412771	     -0.57994525	     23.47907414	     29.13843981	      9.46804897	      1.86035399	    -13.56874080	    -12.01928769	    -10.80544102	     25.03829061	     -5.77353059	     -3.77645880	     13.76661243
      1.77000000	     -8.74867035	      7.08087918	    357.17664696	     -0.64131979	      1.36076595	     -1.05362864	      6.62677932	     -5.84151417	      2.14736916	    -39.16267768	     -0.85305870	     -0.41204536	     24.69242984	     29.10277714	      9.76547604	      2.19602388	    -14.27697918	    -11.57211847	    -11.11467617	     24.18891068	     -5.80090350	     -3.88927232	     13.69127998
      1.77500000	     -8.66283696	      7.21582338	    357.23651181	     -0.63566063	      1.36108926	     -1.05423244	      7.23131089	     -6.12647254	      2.12094782	    -40.64726531	     -2.21523643	     -0.25554279	     25.81481259	     28.98802707	     10.06776515	      2.45992045	    -14.89779048	    -11.09482548	    -11.32499832	     23.37843064	     -5.85588623	     -4.02971407	     13.60918836
      1.78000000	     -8.57325152	      7.35133758	    357.28464009	     -0.63002975	      1.36141942	     -1.05480781	      7.85923760	     -6.40731954	      2.12404861	    -42.12329995	     -3.53650282	     -0.09037991	     26.77944762	     28.82876717	     10.36048908	      2.67318519	    -15.43668992	    -10.63006175	    -11.51108888	     22.64887279	     -5.91013805	     -4.17108130	     13.53370052
      1.78500000	     -8.47597851	      7.46720676	    357.33730048	     -0.62444175	      1.36176663	     -1.05537705	      8.49263194	     -6.66396837	      2.13595194	    -43.57157093	     -4.79896756	      0.09268804	     27.61982407	     28.62451289	     10.62970992	      2.84748562	    -15.90515270	    -10.16984179	    -11.61350417	     21.97878132	     -5.97194885	     -4.29308198	     13.46302372
      1.79000000	     -8.38712075	      7.59106222	    357.36858505	     -0.61888605	      1.36210303	     -1.05589651	      9.15827672	     -6.91574489	      2.19516113	    -45.00252409	     -5.93308053	      0.29360124	     28.26344088	     28.38850083	     10.88851356	      2.96976308	    -16.28679414	     -9.71907432	    -11.72372082	     21.41192096	     -6.02218258	     -4.42041653	     13.39257555
